<svg width="61" height="42" viewBox="0 0 61 42" fill="none" xmlns="http://www.w3.org/2000/svg">
<path d="M41.9632 30.0758C38.8739 27.4728 34.8843 26.0349 30.7511 26.0349C26.6178 26.0349 22.6282 27.4728 19.5389 30.0758" stroke="white" stroke-width="4" stroke-linecap="round" stroke-linejoin="round"/>
<path d="M50.9241 21.5672C45.4527 16.7173 38.2418 14.0193 30.751 14.0193C23.2603 14.0193 16.0493 16.7173 10.5779 21.5672" stroke="white" stroke-width="4" stroke-linecap="round" stroke-linejoin="round"/>
<path d="M58.8871 12.1678C51.1432 5.61912 41.1285 2 30.7511 2C20.3736 2 10.3589 5.61912 2.61496 12.1678" stroke="white" stroke-width="4" stroke-linecap="round" stroke-linejoin="round"/>
<path d="M31.1162 42C30.4866 42 29.8711 41.823 29.3475 41.4914C28.824 41.1598 28.416 40.6885 28.175 40.1371C27.9341 39.5856 27.871 38.9788 27.9938 38.3934C28.1167 37.808 28.4199 37.2703 28.8651 36.8483C29.3103 36.4262 29.8776 36.1388 30.4951 36.0223C31.1127 35.9059 31.7528 35.9657 32.3345 36.1941C32.9162 36.4225 33.4134 36.8093 33.7632 37.3056C34.113 37.8018 34.2997 38.3853 34.2997 38.9822C34.2997 39.7826 33.9643 40.5501 33.3673 41.1161C32.7702 41.6821 31.9605 42 31.1162 42Z" fill="white"/>
</svg>
