<svg width="70" height="73" viewBox="0 0 70 73" fill="none" xmlns="http://www.w3.org/2000/svg">
<path d="M68.4065 35.0667C66.8755 35.0667 39.2046 35.0667 37.6934 35.0667V26.4889H39.0895C39.8604 26.4889 40.4855 25.8488 40.4855 25.0593C40.4855 24.2697 39.8604 23.6296 39.0895 23.6296H39.0857C40.9521 21.0893 40.954 17.5945 39.0857 15.0518H39.0895C39.8604 15.0518 40.4855 14.4117 40.4855 13.6221C40.4855 12.8325 39.8604 12.1925 39.0895 12.1925H37.6934V3.61465H39.0895C39.8604 3.61465 40.4855 2.9746 40.4855 2.18501C40.4855 1.39542 39.8604 0.755371 39.0895 0.755371H19.5447C15.6958 0.755371 12.5645 3.96205 12.5645 7.90357C12.5645 9.51163 13.0859 10.997 13.9643 12.1925H13.9605C13.1895 12.1925 12.5645 12.8325 12.5645 13.6221C12.5645 14.4117 13.1895 15.0518 13.9605 15.0518H15.3566V23.6296H13.9605C13.1895 23.6296 12.5645 24.2697 12.5645 25.0593C12.5645 25.8488 13.1895 26.4889 13.9605 26.4889H13.9643C12.0978 29.0292 12.096 32.524 13.9643 35.0667H1.39605C0.625013 35.0667 0 35.7068 0 36.4964V70.8077C0 71.5972 0.625013 72.2374 1.39605 72.2374C2.16709 72.2374 2.7921 71.5972 2.7921 70.8077V49.3631H39.0895V70.8077C39.0895 71.5972 39.7146 72.2374 40.4855 72.2374C41.2564 72.2374 41.8816 71.5972 41.8816 70.8077V60.8003H67.0105V70.8077C67.0105 71.5972 67.6356 72.2374 68.4065 72.2374C69.1774 72.2374 69.8026 71.5972 69.8026 70.8077C69.8026 69.3093 69.8026 37.4401 69.8026 36.4964C69.8026 35.7068 69.1774 35.0667 68.4065 35.0667ZM67.0105 46.5039H41.8816V37.926H67.0105V46.5039ZM19.5447 3.61465H34.9013V6.47393H19.5447C18.7737 6.47393 18.1487 7.11398 18.1487 7.90357C18.1487 8.69316 18.7737 9.33321 19.5447 9.33321H34.9013V12.1925C33.112 12.1925 22.2553 12.1925 19.5447 12.1925C17.2354 12.1925 15.3566 10.2685 15.3566 7.90357C15.3566 5.53866 17.2354 3.61465 19.5447 3.61465ZM18.1487 20.7703H33.5052C34.2763 20.7703 34.9013 20.1303 34.9013 19.3407C34.9013 18.5511 34.2763 17.9111 33.5052 17.9111H18.1487V15.0518H33.5052C35.8146 15.0518 37.6934 16.9758 37.6934 19.3407C37.6934 21.7056 35.8146 23.6296 33.5052 23.6296C30.7945 23.6296 19.9383 23.6296 18.1487 23.6296V20.7703ZM15.3566 30.7778C15.3566 28.4129 17.2354 26.4889 19.5447 26.4889H34.9013V29.3482H19.5447C18.7737 29.3482 18.1487 29.9882 18.1487 30.7778C18.1487 31.5674 18.7737 32.2075 19.5447 32.2075H34.9013V35.0667H19.5447C17.2354 35.0667 15.3566 33.1427 15.3566 30.7778ZM2.7921 37.926H39.0895V46.5039H2.7921V37.926ZM41.8816 49.3631H67.0105V57.941H41.8816V49.3631Z" fill="white"/>
<path d="M57.2382 52.2227H51.654C50.8831 52.2227 50.2579 52.8628 50.2579 53.6523C50.2579 54.4417 50.8831 55.0819 51.654 55.0819H57.2382C58.0091 55.0819 58.6342 54.4417 58.6342 53.6523C58.6342 52.8628 58.0091 52.2227 57.2382 52.2227Z" fill="white"/>
<path d="M51.654 43.6447H57.2382C58.0091 43.6447 58.6342 43.0045 58.6342 42.215C58.6342 41.4256 58.0091 40.7854 57.2382 40.7854H51.654C50.8831 40.7854 50.2579 41.4256 50.2579 42.215C50.2579 43.0045 50.8831 43.6447 51.654 43.6447Z" fill="white"/>
<path d="M23.7328 40.7854H18.1486C17.3776 40.7854 16.7526 41.4256 16.7526 42.215C16.7526 43.0045 17.3776 43.6447 18.1486 43.6447H23.7328C24.5039 43.6447 25.1289 43.0045 25.1289 42.215C25.1289 41.4256 24.5039 40.7854 23.7328 40.7854Z" fill="white"/>
</svg>
