<svg width="42" height="49" viewBox="0 0 42 49" fill="none" xmlns="http://www.w3.org/2000/svg">
<path d="M17.9309 23.481C17.4929 22.9967 16.7704 22.9833 16.3167 23.4509C15.8633 23.9184 15.8508 24.6895 16.2885 25.1738C16.2979 25.1838 16.3073 25.1939 16.3167 25.2035L18.5998 27.6407C19.0455 28.1164 19.768 28.1168 20.2137 27.6411L20.214 27.6407L24.7806 22.7667C25.2339 22.2992 25.2465 21.528 24.8084 21.0437C24.3707 20.5599 23.6479 20.5465 23.1946 21.0136C23.1848 21.0237 23.1754 21.0337 23.1663 21.0437L19.4069 25.056L17.9309 23.481Z" fill="white"/>
<path d="M9.13277 24.3425C9.13277 31.0718 14.2439 36.5271 20.5486 36.5271C26.8537 36.5271 31.9645 31.0718 31.9645 24.3425C31.9645 17.6128 26.8537 12.1575 20.5486 12.1575C14.247 12.1656 9.14008 17.6161 9.13277 24.3425ZM29.6814 24.3425C29.6814 29.7257 25.5926 34.0899 20.5486 34.0899C15.5051 34.0899 11.4162 29.7257 11.4162 24.3425C11.4162 18.9589 15.5051 14.5947 20.5486 14.5947C25.5905 14.5999 29.6765 18.9611 29.6814 24.3425Z" fill="white"/>
<path d="M39.9555 7.28375C33.3158 7.28375 24.5755 4.89224 21.463 0.460418C21.0472 -0.078462 20.3007 -0.155392 19.7958 0.288348C19.737 0.340006 19.683 0.39761 19.6346 0.460418C16.5218 4.89224 7.78177 7.28375 1.14173 7.28375C0.511148 7.28375 0 7.82932 0 8.50236V24.3424C0 37.7408 10.9009 45.8177 20.2342 48.6641C20.4396 48.7277 20.6576 48.7277 20.863 48.6641C30.1964 45.8177 41.0973 37.7408 41.0973 24.3424V8.50236C41.0973 7.82932 40.5861 7.28375 39.9555 7.28375ZM38.8142 24.3424C38.8142 36.2364 29.048 43.5284 20.5486 46.2247C12.0492 43.5284 2.2831 36.2364 2.2831 24.3424V9.69941C8.88067 9.46119 16.6844 7.19084 20.5486 3.04295C24.4125 7.19084 32.2162 9.46119 38.8142 9.69941V24.3424Z" fill="white"/>
</svg>
