<svg width="31" height="32" viewBox="0 0 31 32" fill="none" xmlns="http://www.w3.org/2000/svg">
<path d="M15.5 31.0659C24.0604 31.0659 31 24.1263 31 15.5659C31 7.0055 24.0604 0.065918 15.5 0.065918C6.93959 0.065918 0 7.0055 0 15.5659C0 24.1263 6.93959 31.0659 15.5 31.0659Z" fill="#29B6F6"/>
<path d="M23.2131 8.58994L20.31 23.4126C20.31 23.4126 20.1852 24.0899 19.3451 24.0899C18.8987 24.0899 18.6685 23.8776 18.6685 23.8776L12.3802 18.6595L9.30341 17.1087L5.35478 16.0586C5.35478 16.0586 4.65186 15.8556 4.65186 15.2743C4.65186 14.7899 5.37493 14.559 5.37493 14.559L21.8948 7.99629C21.8948 7.99629 22.3994 7.81417 22.7675 7.81494C22.9938 7.81494 23.2519 7.91182 23.2519 8.20244C23.2519 8.39619 23.2131 8.58994 23.2131 8.58994Z" fill="white"/>
<path d="M14.7287 20.5997L12.0736 23.2146C12.0736 23.2146 11.9581 23.3037 11.8039 23.3076C11.7504 23.3091 11.693 23.3006 11.6341 23.2742L12.3812 18.6514L14.7287 20.5997Z" fill="#B0BEC5"/>
<path d="M20.0702 11.0649C19.9392 10.8944 19.6974 10.8634 19.5269 10.9928L9.3 17.113C9.3 17.113 10.9322 21.6793 11.1809 22.4698C11.4305 23.2611 11.6304 23.2797 11.6304 23.2797L12.3775 18.6568L19.9973 11.6074C20.1678 11.478 20.1996 11.2354 20.0702 11.0649Z" fill="#CFD8DC"/>
</svg>
