<svg width="52" height="28" viewBox="0 0 52 28" fill="none" xmlns="http://www.w3.org/2000/svg">
<path d="M45.635 18.9344C41.3261 15.2252 41.8762 15.7896 47.1018 9.41951C50.2188 5.54906 51.5023 3.13003 51.1356 2.08178C50.9523 1.4367 48.477 1.59797 48.477 1.59797H40.7761C40.7761 1.59797 39.5843 1.59797 39.1259 2.32368C38.3008 3.69447 37.9341 5.38779 36.2839 7.88746C32.8001 13.29 31.425 13.6125 30.8749 13.29C29.5914 12.4836 29.8665 10.1452 29.8665 8.4519C29.8665 3.21066 30.6916 1.03353 28.2163 0.388455C27.6662 0.227187 27.2078 0.227186 26.3827 0.146551C25.3743 0.0659167 24.3658 0.065918 23.449 0.065918C21.1571 0.065918 19.4152 0.146551 18.2234 0.630358C17.3067 1.03353 16.6649 1.92051 17.1233 2.00114C17.6734 2.08178 18.7735 2.32368 19.4152 3.04939C20.2403 4.017 20.1487 6.27477 20.1487 6.27477C20.1487 6.27477 20.607 12.4836 19.0485 13.2093C18.0401 13.7738 16.5732 12.6449 13.5479 7.72619C11.9894 5.22652 11.806 3.5332 10.7976 2.40432C10.1558 1.67861 8.96401 1.4367 8.96401 1.4367H1.62982C1.62982 1.4367 0.346337 1.35607 0.162982 1.67861C-0.203728 2.08178 0.162982 2.88812 0.162982 2.88812C0.162982 2.88812 5.93866 15.3865 12.4478 21.6759C18.2234 27.6429 25.0076 27.3204 25.0076 27.3204C25.0076 27.3204 28.9497 27.4816 29.4998 26.5946C29.8665 26.2721 29.9581 25.3045 29.9581 25.3045C29.9581 25.3045 29.8665 21.434 31.7917 20.8696C33.7169 20.3052 36.1005 24.5788 38.6675 26.1915C40.5927 27.4816 41.1428 27.3204 42.0596 27.3204C43.8931 27.3204 48.9354 27.3204 48.9354 27.3204C48.9354 27.3204 52.5108 26.9978 50.8606 24.3369C50.5856 24.1756 49.7605 22.4823 45.635 18.9344Z" fill="#0072FF"/>
</svg>
